<?xml version="1.0" encoding="utf-8"?>
<svg viewBox="51.016 201.129 252.8489 100" xmlns="http://www.w3.org/2000/svg">
  <defs>
    <linearGradient id="paint0_linear_1_2" x1="82" y1="11" x2="18" y2="86.5" gradientUnits="userSpaceOnUse" gradientTransform="matrix(1, 0, 0, 1, 51.015816, 201.128689)">
      <stop stop-color="#2FB97D"/>
      <stop offset="1" stop-color="#1AB69D"/>
    </linearGradient>
  </defs>
  <rect width="100" height="100" rx="50" fill="url(#paint0_linear_1_2)" x="51.016" y="201.129" transform="matrix(1, 0, 0, 1, 7.105427357601002e-15, 0)"/>
  <path d="M 97.867 265.933 C 98.438 266.112 99.009 266.238 99.58 266.31 C 100.15 266.346 100.721 266.364 101.292 266.364 C 102.719 266.364 104.093 266.166 105.413 265.771 C 106.734 265.376 107.965 264.819 109.106 264.1 C 110.284 263.346 111.318 262.448 112.211 261.406 C 113.138 260.328 121.423 249.443 120.453 250.683 L 129.016 239.259 C 127.66 241.198 122.237 272.363 120.453 273.908 C 118.704 275.453 116.795 276.764 114.726 277.842 C 112.692 278.919 110.534 279.728 108.25 280.266 C 106.002 280.841 103.683 281.129 101.292 281.129 C 97.26 281.129 93.46 280.374 89.892 278.865 C 86.36 277.357 83.256 275.255 80.58 272.561 C 77.939 269.866 75.852 266.669 74.318 262.969 C 72.783 259.233 72.016 255.137 72.016 250.683 C 72.016 246.12 72.783 241.953 74.318 238.181 C 75.852 234.409 77.939 231.193 80.58 228.535 C 83.256 225.877 86.36 223.811 89.892 222.338 C 93.46 220.865 97.26 220.129 101.292 220.129 C 103.683 220.129 106.02 220.416 108.303 220.991 C 110.587 221.566 112.746 222.392 114.78 223.47 C 116.849 224.547 118.776 225.877 120.56 227.457 C 122.344 229.002 123.914 230.744 125.27 232.684 L 97.867 265.933 Z M 105.36 235.594 C 104.682 235.343 104.004 235.181 103.326 235.109 C 102.684 235.037 102.006 235.001 101.292 235.001 C 99.294 235.001 97.403 235.379 95.619 236.133 C 93.871 236.852 92.336 237.893 91.016 239.259 C 89.732 240.624 88.715 242.276 87.965 244.216 C 87.216 246.12 86.842 248.276 86.842 250.683 C 86.842 251.221 86.859 251.832 86.895 252.515 C 86.966 253.197 87.056 253.898 87.163 254.616 C 87.305 255.299 87.466 255.963 87.644 256.61 C 87.823 257.257 88.055 257.832 88.34 258.334 L 105.36 235.594 Z" fill="white" transform="matrix(1, 0, 0, 1, 7.105427357601002e-15, 0)"/>
  <text style="fill: rgb(51, 51, 51); font-family: Arial, sans-serif; font-size: 28px; white-space: pre;" transform="matrix(1.799104928970337, 0, 0, 1.8221590518951416, -235.2361297607422, -205.89332580566406)"><tspan style="font-weight: 700;" x="227.991" y="260.158">Edu</tspan><tspan>X</tspan></text>
</svg>